<?xml version="1.0" encoding="utf-8"?>
<!-- Generator: Adobe Illustrator 18.0.0, SVG Export Plug-In . SVG Version: 6.00 Build 0)  -->
<!DOCTYPE svg PUBLIC "-//W3C//DTD SVG 1.1//EN" "http://www.w3.org/Graphics/SVG/1.1/DTD/svg11.dtd">
<svg version="1.1" id="Layer_1" xmlns="http://www.w3.org/2000/svg" xmlns:xlink="http://www.w3.org/1999/xlink" x="0px" y="0px"
	 viewBox="0 0 1007.0024 100" enable-background="new 0 0 1007.0024 100" xml:space="preserve">
<g id="VILLA_LOGO">
	<path fill="#A93439" d="M225.7885,82.4106h5.752v10.0435h2.1557V82.4106h5.7432v-2.1562h-13.6509V82.4106L225.7885,82.4106
		L225.7885,82.4106z M257.1943,85.2856h-9.3423v-5.0312h-2.1568v12.1997h2.1568v-5.0122h9.3423v5.0122h2.1557V80.2544h-2.1557
		V85.2856L257.1943,85.2856L257.1943,85.2856z M266.6786,92.4541h12.2188v-2.1299h-10.0635v-2.8823h10.0635v-2.1563h-10.0635v-2.875
		h10.0635v-2.1562h-12.2188V92.4541L266.6786,92.4541L266.6786,92.4541z M184.0409,92.4541h2.1548V80.2544h-2.1548V92.4541
		L184.0409,92.4541L184.0409,92.4541z M153.9355,86.3637c0,1.6119-0.3941,2.7027-1.1802,3.2701
		c-0.6289,0.4619-1.7935,0.6904-3.4956,0.6904c-1.1675,0-2.0649-0.1143-2.6953-0.3438c-0.8765-0.3315-1.479-0.9702-1.8091-1.913
		l-1.9639,0.9013c0.4781,1.3296,1.336,2.2798,2.5777,2.8448c0.9882,0.4262,2.2851,0.6406,3.8906,0.6406
		c2.2861,0,3.9639-0.4297,5.0376-1.2891c1.1938-0.9658,1.793-2.5654,1.793-4.8013v-6.1093h-2.1548V86.3637L153.9355,86.3637
		L153.9355,86.3637z M205.0258,89.2666l-9.5625-9.0122h-1.937v12.1997h2.1572v-8.9868l9.5615,8.9868h1.9366V80.2544h-2.1558V89.2666
		L205.0258,89.2666L205.0258,89.2666z M169.8852,80.2544c-5.0318,0-7.5454,2.0381-7.5454,6.1093
		c0,4.0596,2.5136,6.0904,7.5454,6.0904c5.0307,0,7.5459-2.0308,7.5459-6.0904C177.4311,82.2925,174.9159,80.2544,169.8852,80.2544
		L169.8852,80.2544L169.8852,80.2544z M173.6669,89.6416c-0.8042,0.4551-2.0635,0.6826-3.7817,0.6826
		c-1.7295,0-2.9888-0.2275-3.7818-0.6826c-1.0703-0.5894-1.6084-1.6817-1.6084-3.2779c0-1.5913,0.5313-2.686,1.5933-3.2866
		c0.7974-0.4438,2.0615-0.6665,3.7969-0.6665c1.7182,0,2.9775,0.2261,3.7817,0.6743c1.0718,0.6011,1.6079,1.6949,1.6079,3.2788
		C175.2748,87.9599,174.7387,89.0522,173.6669,89.6416L173.6669,89.6416L173.6669,89.6416z M404.3222,92.4541h12.2226v-2.1299
		h-10.0673v-2.8823h10.0673v-2.1563h-10.0673v-2.875h10.0673v-2.1562h-12.2226V92.4541L404.3222,92.4541L404.3222,92.4541z
		 M435.374,89.2666l-9.5625-9.0122h-1.9385v12.1997h2.1582v-8.9868l9.5605,8.9868h1.9385V80.2544h-2.1562V89.2666L435.374,89.2666
		L435.374,89.2666z M306.1913,89.9565l-5.6098-9.7021h-1.9947v12.1997h2.1563V84.833l4.4121,7.6211h2.0713l4.4126-7.6211v7.6211
		h2.1562V80.2544h-2.0044L306.1913,89.9565L306.1913,89.9565L306.1913,89.9565z M389.3876,89.9565l-5.6113-9.7021h-1.9951v12.1997
		h2.1572V84.833l4.4121,7.6211h2.0723l4.4131-7.6211v7.6211h2.1552V80.2544h-2.0058L389.3876,89.9565L389.3876,89.9565
		L389.3876,89.9565z M456.1786,80.2544h-12.4023v2.1562h5.7519v10.0435h2.1573V82.4106h5.7392L456.1786,80.2544L456.1786,80.2544
		L456.1786,80.2544z M362.2323,92.4541h12.2198v-2.1299h-10.0664v-2.8823h10.0664v-2.1563h-10.0664v-2.875h10.0664v-2.1562h-12.2198
		V92.4541L362.2323,92.4541L362.2323,92.4541z M327.9555,80.2544c-5.0313,0-7.5479,2.0381-7.5479,6.1093
		c0,4.0596,2.5166,6.0904,7.5479,6.0904c5.0303,0,7.5444-2.0308,7.5444-6.0904C335.5,82.2925,332.9858,80.2544,327.9555,80.2544
		L327.9555,80.2544L327.9555,80.2544z M331.7339,89.6416c-0.7993,0.4551-2.0605,0.6826-3.7783,0.6826
		c-1.7295,0-2.9907-0.2275-3.7817-0.6826c-1.0743-0.5894-1.6084-1.6817-1.6084-3.2779c0-1.5913,0.5312-2.686,1.5908-3.2866
		c0.7988-0.4438,2.063-0.6665,3.7993-0.6665c1.7178,0,2.979,0.2261,3.7783,0.6743c1.0767,0.6011,1.6113,1.6949,1.6113,3.2788
		C333.3452,87.9599,332.8105,89.0522,331.7339,89.6416L331.7339,89.6416L331.7339,89.6416z M348.5014,89.9741l-5.6152-9.7197
		h-2.4512l7.0386,12.1997h2.0639l7.0581-12.1997h-2.4673L348.5014,89.9741L348.5014,89.9741L348.5014,89.9741z"/>
	<polygon fill="#A93439" points="210.87,73.541 218.8134,73.541 218.8134,12.1191 210.87,12.1191 210.87,73.541 210.87,73.541 	"/>
	<polygon fill="#A93439" points="142.8134,73.541 185.3495,73.541 185.3495,12.1191 178.4579,12.1191 142.8134,73.541 
		142.8134,73.541 	"/>
	<polygon fill="#A93439" points="429.6474,33.7475 418.7841,52.4819 440.5136,52.4819 429.6474,33.7475 429.6474,33.7475 	"/>
	<polygon fill="#A93439" points="244.332,62.7231 292.7792,62.7231 292.7792,73.541 300.1957,73.541 300.1957,12.1191 
		244.332,12.1191 244.332,62.7231 244.332,62.7231 	"/>
	<polygon fill="#A93439" points="106.8876,12.1191 129.9662,51.9126 153.0414,12.1191 106.8876,12.1191 106.8876,12.1191 	"/>
	<g>
		<linearGradient id="SVGID_1_" gradientUnits="userSpaceOnUse" x1="442.8603" y1="42.8301" x2="1007.0024" y2="42.8301">
			<stop  offset="0" style="stop-color:#DDDDDE"/>
			<stop  offset="1" style="stop-color:#DDDDDE;stop-opacity:0"/>
		</linearGradient>
		<polygon fill="url(#SVGID_1_)" points="478.4814,73.541 1007.0024,73.541 1007.0024,12.1191 442.8603,12.1191 		"/>
		<polygon fill="#D9D9D9" points="11.1772,73.541 116.7533,73.541 81.1313,12.1191 11.1772,12.1191 		"/>
	</g>
	<polygon fill="#A93439" points="412.4882,63.3359 406.5712,73.541 452.7265,73.541 446.8075,63.3359 412.4882,63.3359 
		412.4882,63.3359 	"/>
	<polygon fill="#A93439" points="325.7148,12.1191 325.7148,62.7231 374.162,62.7231 374.162,73.541 381.1562,73.541 
		416.7997,12.1191 325.7148,12.1191 325.7148,12.1191 	"/>
</g>
</svg>
